<svg width="31" height="31" viewBox="0 0 31 31" fill="none" xmlns="http://www.w3.org/2000/svg">
<rect width="31" height="31" rx="15.5" fill="#EEC187"/>
<g clip-path="url(#clip0_151_191)">
<path d="M19.622 9.07324H12.8173C10.9462 9.07324 9.41493 10.6045 9.41493 12.4756V19.2806C9.41493 21.1513 10.9462 22.683 12.8173 22.683H19.622C21.4931 22.683 23.0244 21.1513 23.0244 19.2806V12.4756C23.0244 10.6045 21.4931 9.07324 19.622 9.07324ZM21.8902 19.2806C21.8902 20.531 20.8731 21.5488 19.622 21.5488H12.8173C11.5668 21.5488 10.5491 20.531 10.5491 19.2806V12.4756C10.5491 11.2249 11.5668 10.2074 12.8173 10.2074H19.622C20.8731 10.2074 21.8902 11.2249 21.8902 12.4756V19.2806Z" fill="#797979"/>
<path d="M19.906 13.0425C20.3758 13.0425 20.7566 12.6617 20.7566 12.1919C20.7566 11.7221 20.3758 11.3413 19.906 11.3413C19.4363 11.3413 19.0555 11.7221 19.0555 12.1919C19.0555 12.6617 19.4363 13.0425 19.906 13.0425Z" fill="#EEC187"/>
<path d="M16.2196 12.4756C14.3401 12.4756 12.8172 13.9986 12.8172 15.8779C12.8172 17.7565 14.3401 19.2806 16.2196 19.2806C18.0985 19.2806 19.622 17.7565 19.622 15.8779C19.622 13.9986 18.0985 12.4756 16.2196 12.4756ZM16.2196 18.1465C14.967 18.1465 13.9514 17.1309 13.9514 15.8779C13.9514 14.625 14.967 13.6098 16.2196 13.6098C17.4722 13.6098 18.4878 14.625 18.4878 15.8779C18.4878 17.1309 17.4722 18.1465 16.2196 18.1465Z" fill="#797979"/>
</g>
<defs>
<clipPath id="clip0_151_191">
<rect width="13.6098" height="13.6098" fill="white" transform="translate(9.41473 9.07324)"/>
</clipPath>
</defs>
</svg>
