<svg width="17" height="22" viewBox="0 0 17 22" fill="none" xmlns="http://www.w3.org/2000/svg">
<path d="M8.47545 0C7.23737 0 6.04999 0.443499 5.17454 1.23293C4.29908 2.02236 3.80725 3.09306 3.80725 4.20949V4.91107H3.16148C2.50647 4.91045 1.87643 5.13766 1.40252 5.5454C0.928615 5.95313 0.647362 6.50998 0.617316 7.10001L0.00267032 18.641C-0.013086 18.9514 0.0410086 19.2614 0.161693 19.5524C0.282378 19.8434 0.467153 20.1093 0.704882 20.3341C0.942611 20.559 1.22837 20.7381 1.54494 20.8607C1.8615 20.9833 2.20232 21.0468 2.54684 21.0475H14.4041C14.7486 21.0468 15.0894 20.9833 15.406 20.8607C15.7225 20.7381 16.0083 20.559 16.246 20.3341C16.4837 20.1093 16.6685 19.8434 16.7892 19.5524C16.9099 19.2614 16.964 18.9514 16.9482 18.641L16.3336 7.10001C16.3035 6.50998 16.0223 5.95313 15.5484 5.5454C15.0745 5.13766 14.4444 4.91045 13.7894 4.91107H13.1436V4.20949C13.1436 3.09306 12.6518 2.02236 11.7764 1.23293C10.9009 0.443499 9.71353 0 8.47545 0ZM5.36332 4.20949C5.36332 3.46521 5.6912 2.75141 6.27484 2.22512C6.85848 1.69883 7.65006 1.40316 8.47545 1.40316C9.30084 1.40316 10.0924 1.69883 10.6761 2.22512C11.2597 2.75141 11.5876 3.46521 11.5876 4.20949V4.91107H5.36332V4.20949ZM14.7775 7.16315L15.3922 18.7112C15.397 18.8319 15.3755 18.9522 15.3288 19.0654C15.2821 19.1785 15.2111 19.2823 15.1199 19.3707C15.0267 19.4569 14.9154 19.5255 14.7925 19.5725C14.6696 19.6195 14.5376 19.6439 14.4041 19.6443H2.54684C2.41334 19.6439 2.28128 19.6195 2.15837 19.5725C2.03546 19.5255 1.92418 19.4569 1.83105 19.3707C1.73984 19.2823 1.66885 19.1785 1.62212 19.0654C1.5754 18.9522 1.55386 18.8319 1.55874 18.7112L2.17338 7.16315C2.18539 6.93421 2.29477 6.71825 2.47879 6.56015C2.66281 6.40205 2.90731 6.31398 3.16148 6.31424H13.7894C14.0436 6.31398 14.2881 6.40205 14.4721 6.56015C14.6561 6.71825 14.7655 6.93421 14.7775 7.16315Z" fill="#797979"/>
<path d="M4.86534 8.55233C5.29504 8.55233 5.64338 8.23822 5.64338 7.85075C5.64338 7.46328 5.29504 7.14917 4.86534 7.14917C4.43565 7.14917 4.08731 7.46328 4.08731 7.85075C4.08731 8.23822 4.43565 8.55233 4.86534 8.55233Z" fill="#797979"/>
<path d="M12.0855 8.55233C12.5152 8.55233 12.8636 8.23822 12.8636 7.85075C12.8636 7.46328 12.5152 7.14917 12.0855 7.14917C11.6558 7.14917 11.3075 7.46328 11.3075 7.85075C11.3075 8.23822 11.6558 8.55233 12.0855 8.55233Z" fill="#797979"/>
</svg>
