<svg width="21" height="21" viewBox="0 0 21 21" fill="none" xmlns="http://www.w3.org/2000/svg">
<g clip-path="url(#clip0_151_182)">
<path d="M19.7105 14.8273C19.6757 14.7984 15.7408 11.9989 14.6783 12.1702C14.1658 12.2607 13.8731 12.6105 13.2858 13.3101C13.1913 13.4229 12.9636 13.6927 12.7877 13.8849C12.4165 13.764 12.0544 13.6166 11.7042 13.4439C9.89659 12.5639 8.43609 11.1034 7.55606 9.29578C7.38338 8.94562 7.236 8.58354 7.11506 8.21231C7.308 8.03578 7.57837 7.80806 7.69387 7.71094C8.39016 7.12687 8.73928 6.83353 8.82984 6.32034C9.01556 5.25787 6.20156 1.32431 6.17269 1.28887C6.04454 1.10713 5.87763 0.956107 5.68402 0.846705C5.49041 0.737303 5.27493 0.672253 5.05312 0.65625C3.91256 0.65625 0.65625 4.87987 0.65625 5.59191C0.65625 5.63325 0.715969 9.83587 5.89838 15.1075C11.1641 20.284 15.3667 20.3438 15.4081 20.3438C16.1195 20.3438 20.3438 17.0874 20.3438 15.9469C20.3276 15.725 20.2624 15.5096 20.1529 15.316C20.0434 15.1224 19.8923 14.9555 19.7105 14.8273ZM15.3352 19.0273C14.7656 18.9788 11.235 18.5135 6.825 14.1816C2.47209 9.74991 2.01863 6.21338 1.97334 5.66541C2.83354 4.31527 3.87239 3.08767 5.06166 2.016C5.08791 2.04225 5.12269 2.08162 5.16731 2.13281C6.07939 3.37787 6.86508 4.71074 7.51275 6.11166C7.30213 6.32354 7.07952 6.52315 6.846 6.7095C6.48388 6.98542 6.15135 7.29816 5.85375 7.64269C5.80339 7.71334 5.76755 7.79328 5.74829 7.87787C5.72903 7.96247 5.72673 8.05004 5.74153 8.13553C5.88041 8.73713 6.09312 9.31927 6.37481 9.86869C7.38405 11.9411 9.05872 13.6156 11.1313 14.6245C11.6806 14.9066 12.2628 15.1196 12.8645 15.2585C12.95 15.2736 13.0376 15.2715 13.1222 15.2522C13.2069 15.2329 13.2868 15.1969 13.3573 15.1462C13.7031 14.8474 14.0169 14.5136 14.2938 14.1501C14.4998 13.9046 14.7748 13.5772 14.8792 13.4846C16.2836 14.1317 17.6195 14.9183 18.8665 15.8327C18.921 15.8786 18.9597 15.9141 18.9853 15.937C17.9136 17.1267 16.6857 18.1658 15.3352 19.026V19.0273Z" fill="#797979"/>
<path d="M15.0938 9.84375H16.4062C16.4047 8.45184 15.8511 7.11739 14.8668 6.13317C13.8826 5.14894 12.5482 4.59531 11.1562 4.59375V5.90625C12.2002 5.90729 13.2011 6.32247 13.9393 7.06067C14.6775 7.79887 15.0927 8.79978 15.0938 9.84375Z" fill="#797979"/>
<path d="M18.375 9.84375H19.6875C19.6849 7.58192 18.7852 5.41348 17.1859 3.81412C15.5865 2.21477 13.4181 1.31511 11.1562 1.3125V2.625C13.0701 2.62726 14.9049 3.38853 16.2582 4.74182C17.6115 6.09511 18.3727 7.92991 18.375 9.84375Z" fill="#797979"/>
</g>
<defs>
<clipPath id="clip0_151_182">
<rect width="21" height="21" fill="white"/>
</clipPath>
</defs>
</svg>
