<svg width="32" height="31" viewBox="0 0 32 31" fill="none" xmlns="http://www.w3.org/2000/svg">
<rect x="0.682861" width="31" height="31" rx="15.5" fill="#EEC187"/>
<path d="M24.481 11.5683C23.914 11.814 23.328 11.9841 22.7042 12.0597C23.3469 11.6817 23.8383 11.0768 24.0652 10.3396C23.4603 10.6988 22.7987 10.9445 22.0993 11.0957C21.5323 10.4908 20.7194 10.1128 19.831 10.1128C18.1109 10.1128 16.731 11.5116 16.731 13.2128C16.731 13.4585 16.7499 13.6854 16.8066 13.9122C14.2359 13.7988 11.9676 12.5512 10.4365 10.6799C9.34018 12.6457 10.5688 14.2713 11.3816 14.8195C10.8902 14.8195 10.3987 14.6683 9.98286 14.4415C9.98286 15.9725 11.0603 17.239 12.4591 17.5225C12.1566 17.6171 11.4762 17.6738 11.0603 17.5793C11.4573 18.8079 12.6103 19.7152 13.9524 19.7341C12.8938 20.5658 11.3438 21.2274 9.35908 21.0195C10.739 21.9079 12.3646 22.4183 14.1225 22.4183C19.831 22.4183 22.931 17.6927 22.931 13.6097C22.931 13.4774 22.931 13.3451 22.9121 13.2128C23.5548 12.7402 24.0841 12.1921 24.481 11.5683Z" fill="#797979"/>
</svg>
